<svg width="21" height="21" viewBox="0 0 21 21" fill="none" xmlns="http://www.w3.org/2000/svg">
<path d="M10.1163 0.505859C4.77461 0.505859 0.428833 4.85164 0.428833 10.1934C0.428833 15.5351 4.77461 19.8809 10.1163 19.8809C15.4581 19.8809 19.8038 15.5351 19.8038 10.1934C19.8038 4.85164 15.4581 0.505859 10.1163 0.505859ZM16.5214 4.97328C17.6739 6.38133 18.3718 8.17473 18.39 10.1278C18.1172 10.0701 15.3815 9.5152 12.6282 9.86145C12.4035 9.31297 12.1914 8.83047 11.9009 8.2359C14.9604 6.9868 16.347 5.20926 16.5214 4.97328ZM15.6015 4.01641C15.4527 4.2284 14.2071 5.90258 11.2648 7.00543C9.90883 4.51418 8.40598 2.46762 8.17727 2.16137C10.8013 1.52883 13.5666 2.21098 15.6015 4.01641ZM6.5984 2.71758C6.81657 3.01676 8.2952 5.06586 9.66625 7.50309C5.79567 8.53094 2.38657 8.51613 2.01649 8.51125C2.55305 5.94355 4.28344 3.80949 6.5984 2.71758ZM1.84172 10.206C1.84172 10.1214 1.8434 10.0371 1.84594 9.95313C2.20797 9.96055 6.21782 10.0122 10.3501 8.77555C10.587 9.23914 10.8132 9.70973 11.0209 10.1798C8.02879 11.0226 5.31024 13.4426 3.96895 15.7386C2.64735 14.2717 1.84172 12.3312 1.84172 10.206ZM5.03731 16.7338C5.90165 14.9669 8.24739 12.6861 11.5834 11.548C12.7451 14.5669 13.2255 17.097 13.3486 17.823C10.6879 18.9563 7.4886 18.6454 5.03731 16.7338ZM14.7397 17.0654C14.6548 16.5621 14.2144 14.1398 13.1322 11.1657C15.7251 10.7506 18.0032 11.4301 18.2863 11.5194C17.9175 13.8218 16.596 15.8102 14.7397 17.0654Z" fill="#6E07F3"/>
</svg>
