<svg width="861" height="350" viewBox="0 0 861 350" fill="none" xmlns="http://www.w3.org/2000/svg">
<g clip-path="url(#clip0_2_101)">
<path fill-rule="evenodd" clip-rule="evenodd" d="M513.481 44.1277H177.499C174.83 44.1277 172.415 45.2084 170.667 46.9554C168.919 48.703 167.838 51.1174 167.838 53.7843V283.874C167.838 286.539 168.919 288.954 170.668 290.702C172.416 292.449 174.831 293.53 177.499 293.53H513.481C516.149 293.53 518.564 292.45 520.312 290.703C522.061 288.955 523.142 286.541 523.142 283.874V53.7843C523.142 51.1188 522.06 48.7042 520.311 46.9561C518.563 45.2089 516.148 44.1277 513.481 44.1277Z" fill="white" stroke="#141C3A" stroke-width="2.75964"/>
<path fill-rule="evenodd" clip-rule="evenodd" d="M496.928 65.5151H193.707C192.565 65.5151 191.53 65.9789 190.781 66.7293C190.033 67.4786 189.57 68.5136 189.57 69.6568V241.095C189.57 242.239 190.033 243.274 190.781 244.023C191.53 244.773 192.564 245.237 193.707 245.237H496.928C498.07 245.237 499.104 244.773 499.854 244.023C500.602 243.273 501.065 242.238 501.065 241.095V69.6568C501.065 68.5134 500.602 67.4783 499.854 66.729C499.105 65.9789 498.07 65.5151 496.928 65.5151Z" fill="#6E07F3" stroke="#6E07F3" stroke-width="2.75964"/>
<path fill-rule="evenodd" clip-rule="evenodd" d="M371.137 293.531H320.187L316.748 338.03H374.577L371.137 293.531Z" fill="white" stroke="#141C3A" stroke-width="2.75964"/>
<path fill-rule="evenodd" clip-rule="evenodd" d="M395.508 348.034H295.817C295.722 348.034 295.635 347.995 295.573 347.933C295.51 347.87 295.471 347.782 295.471 347.686V343.032C295.471 341.65 296.031 340.4 296.937 339.495C297.842 338.59 299.093 338.03 300.475 338.03H390.849C392.231 338.03 393.482 338.59 394.388 339.495C395.293 340.401 395.853 341.651 395.853 343.032V347.686C395.853 347.782 395.815 347.87 395.752 347.933C395.69 347.996 395.603 348.034 395.508 348.034Z" fill="white" stroke="#141C3A" stroke-width="2.75964"/>
<path d="M345.662 277.663C349.187 277.663 352.044 274.806 352.044 271.281C352.044 267.757 349.187 264.899 345.662 264.899C342.138 264.899 339.281 267.757 339.281 271.281C339.281 274.806 342.138 277.663 345.662 277.663Z" stroke="#141C3A" stroke-width="2.75964"/>
<path d="M195.089 213.846H143.346C138.774 213.846 135.067 217.553 135.067 222.125V339.755C135.067 344.327 138.774 348.034 143.346 348.034H195.089C199.662 348.034 203.368 344.327 203.368 339.755V222.125C203.368 217.553 199.662 213.846 195.089 213.846Z" fill="white" stroke="#141C3A" stroke-width="2.75964"/>
<path fill-rule="evenodd" clip-rule="evenodd" d="M203.368 229.024H135.067V328.13H203.368V229.024Z" fill="#141C3A" stroke="#141C3A" stroke-width="2.75964"/>
<path d="M184.396 220.055H154.385C153.622 220.055 153.005 220.673 153.005 221.435C153.005 222.197 153.622 222.815 154.385 222.815H184.396C185.158 222.815 185.775 222.197 185.775 221.435C185.775 220.673 185.158 220.055 184.396 220.055Z" fill="#141C3A"/>
<path d="M173.288 337.823C173.288 335.651 171.527 333.89 169.356 333.89C167.184 333.89 165.423 335.651 165.423 337.823C165.423 339.995 167.184 341.755 169.356 341.755C171.527 341.755 173.288 339.995 173.288 337.823Z" fill="#141C3A"/>
<path d="M154.385 283.527C157.242 283.527 159.559 281.21 159.559 278.353C159.559 275.495 157.242 273.178 154.385 273.178C151.527 273.178 149.21 275.495 149.21 278.353C149.21 281.21 151.527 283.527 154.385 283.527Z" fill="#6E07F3" stroke="#6E07F3" stroke-width="2.75964"/>
<path d="M189.225 269.384H167.838C167.076 269.384 166.458 270.002 166.458 270.764C166.458 271.526 167.076 272.143 167.838 272.143H189.225C189.987 272.143 190.605 271.526 190.605 270.764C190.605 270.002 189.987 269.384 189.225 269.384Z" fill="white"/>
<path d="M182.326 276.973H167.838C167.076 276.973 166.458 277.591 166.458 278.353C166.458 279.115 167.076 279.733 167.838 279.733H182.326C183.088 279.733 183.706 279.115 183.706 278.353C183.706 277.591 183.088 276.973 182.326 276.973Z" fill="white"/>
<path d="M175.427 284.562H167.838C167.076 284.562 166.458 285.18 166.458 285.942C166.458 286.704 167.076 287.321 167.838 287.321H175.427C176.189 287.321 176.807 286.704 176.807 285.942C176.807 285.18 176.189 284.562 175.427 284.562Z" fill="white"/>
<path d="M100.054 279.042C129.298 279.042 153.005 255.336 153.005 226.092C153.005 196.848 129.298 173.141 100.054 173.141C70.8102 173.141 47.1034 196.848 47.1034 226.092C47.1034 255.336 70.8102 279.042 100.054 279.042Z" fill="#5BE9B9" stroke="#141C3A" stroke-width="2.75964"/>
<path fill-rule="evenodd" clip-rule="evenodd" d="M670.096 162.103H434.14C431.473 162.103 429.059 163.184 427.312 164.931C425.565 166.679 424.485 169.094 424.485 171.761V323.887C424.485 326.552 425.566 328.967 427.313 330.716C429.061 332.464 431.474 333.545 434.14 333.545H670.096C672.763 333.545 675.177 332.464 676.924 330.717C678.671 328.969 679.752 326.554 679.752 323.887V171.761C679.752 169.096 678.671 166.68 676.923 164.932C675.176 163.184 672.762 162.103 670.096 162.103Z" fill="white" stroke="#141C3A" stroke-width="2.75964"/>
<path fill-rule="evenodd" clip-rule="evenodd" d="M697.002 333.545H407.234C407.14 333.545 407.055 333.584 406.993 333.646C406.93 333.708 406.892 333.795 406.892 333.89V340.789C406.892 342.79 407.703 344.601 409.014 345.912C410.325 347.223 412.137 348.034 414.138 348.034H690.098C692.099 348.034 693.911 347.223 695.222 345.912C696.533 344.601 697.344 342.79 697.344 340.789V333.89C697.344 333.795 697.305 333.709 697.243 333.646C697.181 333.584 697.096 333.545 697.002 333.545Z" fill="white" stroke="#141C3A" stroke-width="2.75964"/>
<path fill-rule="evenodd" clip-rule="evenodd" d="M571.191 333.7L532.562 333.7C533.234 335.472 534.363 337.017 535.805 338.195C537.647 339.698 539.998 340.599 542.561 340.599H561.192C563.754 340.599 566.105 339.698 567.947 338.194C569.389 337.017 570.518 335.471 571.191 333.7Z" fill="white" stroke="#141C3A" stroke-width="2.75964"/>
<path d="M666.784 176.936H437.248C435.724 176.936 434.488 178.171 434.488 179.695V316.246C434.488 317.77 435.724 319.005 437.248 319.005H666.784C668.308 319.005 669.543 317.77 669.543 316.246V179.695C669.543 178.171 668.308 176.936 666.784 176.936Z" fill="#5BE9B9"/>
<path d="M337.901 70.3443C338.853 70.3443 339.626 69.5721 339.626 68.6196C339.626 67.667 338.853 66.8948 337.901 66.8948C336.948 66.8948 336.176 67.667 336.176 68.6196C336.176 69.5721 336.948 70.3443 337.901 70.3443Z" fill="#293347"/>
<path fill-rule="evenodd" clip-rule="evenodd" d="M395.853 21.0159H242.003V171.072C242.003 172.978 242.775 174.702 244.024 175.95C245.273 177.199 246.999 177.971 248.905 177.971H388.951C390.857 177.971 392.583 177.198 393.832 175.95C395.081 174.702 395.853 172.977 395.853 171.072V21.0159Z" fill="#141C3A" stroke="#141C3A" stroke-width="2.75964"/>
<path fill-rule="evenodd" clip-rule="evenodd" d="M388.951 2.04321H248.905C246.999 2.04321 245.274 2.8155 244.025 4.06423C242.776 5.31295 242.003 7.03809 242.003 8.94363V18.2561H395.853V8.94363C395.853 7.03865 395.081 5.31349 393.831 4.0646C392.582 2.81584 390.857 2.04321 388.951 2.04321Z" fill="white" stroke="#141C3A" stroke-width="2.75964"/>
<path d="M254.077 13.4267C255.791 13.4267 257.181 12.0368 257.181 10.3221C257.181 8.60751 255.791 7.21753 254.077 7.21753C252.362 7.21753 250.972 8.60751 250.972 10.3221C250.972 12.0368 252.362 13.4267 254.077 13.4267Z" fill="#141C3A"/>
<path d="M264.425 13.4267C266.14 13.4267 267.53 12.0368 267.53 10.3221C267.53 8.60751 266.14 7.21753 264.425 7.21753C262.711 7.21753 261.321 8.60751 261.321 10.3221C261.321 12.0368 262.711 13.4267 264.425 13.4267Z" fill="#6E07F3"/>
<path d="M274.774 13.4267C276.489 13.4267 277.879 12.0368 277.879 10.3221C277.879 8.60751 276.489 7.21753 274.774 7.21753C273.059 7.21753 271.669 8.60751 271.669 10.3221C271.669 12.0368 273.059 13.4267 274.774 13.4267Z" fill="#5BE9B9"/>
<path opacity="0.54" d="M263.39 118.983H259.941C259.179 118.983 258.561 119.601 258.561 120.363C258.561 121.125 259.179 121.743 259.941 121.743H263.39C264.153 121.743 264.77 121.125 264.77 120.363C264.77 119.601 264.153 118.983 263.39 118.983Z" fill="#535B6B"/>
<path opacity="0.54" d="M263.39 49.9919H259.941C259.179 49.9919 258.561 50.6097 258.561 51.3718C258.561 52.1338 259.179 52.7516 259.941 52.7516H263.39C264.153 52.7516 264.77 52.1338 264.77 51.3718C264.77 50.6097 264.153 49.9919 263.39 49.9919Z" fill="#535B6B"/>
<path fill-rule="evenodd" clip-rule="evenodd" d="M270.29 49.9919H279.603C280.365 49.9919 280.983 50.6097 280.983 51.3718C280.983 52.1338 280.365 52.7516 279.603 52.7516H270.29C269.528 52.7516 268.91 52.1338 268.91 51.3718C268.91 50.6097 269.528 49.9919 270.29 49.9919Z" fill="#6E07F3"/>
<path fill-rule="evenodd" clip-rule="evenodd" d="M285.813 49.9919H295.126C295.888 49.9919 296.506 50.6097 296.506 51.3718C296.506 52.1338 295.888 52.7516 295.126 52.7516H285.813C285.051 52.7516 284.433 52.1338 284.433 51.3718C284.433 50.6097 285.051 49.9919 285.813 49.9919Z" fill="#5BE9B9"/>
<path fill-rule="evenodd" clip-rule="evenodd" d="M301.336 49.9919H318.583C319.345 49.9919 319.963 50.6097 319.963 51.3718C319.963 52.1338 319.345 52.7516 318.583 52.7516H301.336C300.574 52.7516 299.956 52.1338 299.956 51.3718C299.956 50.6097 300.574 49.9919 301.336 49.9919Z" fill="#6E07F3"/>
<path fill-rule="evenodd" clip-rule="evenodd" d="M324.793 49.9919H350.319C351.081 49.9919 351.699 50.6097 351.699 51.3718C351.699 52.1338 351.081 52.7516 350.319 52.7516H324.793C324.03 52.7516 323.413 52.1338 323.413 51.3718C323.413 50.6097 324.03 49.9919 324.793 49.9919Z" fill="#6E07F3"/>
<path opacity="0.54" d="M263.39 63.7903H259.941C259.179 63.7903 258.561 64.4081 258.561 65.1701C258.561 65.9322 259.179 66.5499 259.941 66.5499H263.39C264.153 66.5499 264.77 65.9322 264.77 65.1701C264.77 64.4081 264.153 63.7903 263.39 63.7903Z" fill="#535B6B"/>
<path opacity="0.54" d="M263.39 77.5884H259.941C259.179 77.5884 258.561 78.2061 258.561 78.9682C258.561 79.7303 259.179 80.348 259.941 80.348H263.39C264.153 80.348 264.77 79.7303 264.77 78.9682C264.77 78.2061 264.153 77.5884 263.39 77.5884Z" fill="#535B6B"/>
<path opacity="0.54" d="M263.39 91.3867H259.941C259.179 91.3867 258.561 92.0045 258.561 92.7665C258.561 93.5286 259.179 94.1464 259.941 94.1464H263.39C264.153 94.1464 264.77 93.5286 264.77 92.7665C264.77 92.0045 264.153 91.3867 263.39 91.3867Z" fill="#535B6B"/>
<path opacity="0.54" d="M263.39 105.185H259.941C259.179 105.185 258.561 105.803 258.561 106.565C258.561 107.327 259.179 107.944 259.941 107.944H263.39C264.153 107.944 264.77 107.327 264.77 106.565C264.77 105.803 264.153 105.185 263.39 105.185Z" fill="#535B6B"/>
<path opacity="0.54" d="M263.39 132.781H259.941C259.179 132.781 258.561 133.399 258.561 134.161C258.561 134.923 259.179 135.541 259.941 135.541H263.39C264.153 135.541 264.77 134.923 264.77 134.161C264.77 133.399 264.153 132.781 263.39 132.781Z" fill="#535B6B"/>
<path opacity="0.54" d="M263.39 146.58H259.941C259.179 146.58 258.561 147.197 258.561 147.959C258.561 148.721 259.179 149.339 259.941 149.339H263.39C264.153 149.339 264.77 148.721 264.77 147.959C264.77 147.197 264.153 146.58 263.39 146.58Z" fill="#535B6B"/>
<path d="M291.677 63.7903H270.29C269.528 63.7903 268.91 64.4081 268.91 65.1701C268.91 65.9322 269.528 66.5499 270.29 66.5499H291.677C292.439 66.5499 293.057 65.9322 293.057 65.1701C293.057 64.4081 292.439 63.7903 291.677 63.7903Z" fill="#6E07F3"/>
<path d="M336.521 63.7903H297.886C297.124 63.7903 296.506 64.4081 296.506 65.1701C296.506 65.9322 297.124 66.5499 297.886 66.5499H336.521C337.283 66.5499 337.901 65.9322 337.901 65.1701C337.901 64.4081 337.283 63.7903 336.521 63.7903Z" fill="#5BE9B9"/>
<path d="M357.218 63.7903H342.73C341.968 63.7903 341.35 64.4081 341.35 65.1701C341.35 65.9322 341.968 66.5499 342.73 66.5499H357.218C357.98 66.5499 358.598 65.9322 358.598 65.1701C358.598 64.4081 357.98 63.7903 357.218 63.7903Z" fill="#6E07F3"/>
<path d="M284.778 77.5884H270.29C269.528 77.5884 268.91 78.2061 268.91 78.9682C268.91 79.7303 269.528 80.348 270.29 80.348H284.778C285.54 80.348 286.158 79.7303 286.158 78.9682C286.158 78.2061 285.54 77.5884 284.778 77.5884Z" fill="#5BE9B9"/>
<path d="M305.475 77.5884H290.987C290.225 77.5884 289.607 78.2061 289.607 78.9682C289.607 79.7303 290.225 80.348 290.987 80.348H305.475C306.237 80.348 306.855 79.7303 306.855 78.9682C306.855 78.2061 306.237 77.5884 305.475 77.5884Z" fill="#6E07F3"/>
<path d="M319.273 77.5884H311.684C310.922 77.5884 310.304 78.2061 310.304 78.9682C310.304 79.7303 310.922 80.348 311.684 80.348H319.273C320.035 80.348 320.653 79.7303 320.653 78.9682C320.653 78.2061 320.035 77.5884 319.273 77.5884Z" fill="#6E07F3"/>
<path d="M302.025 91.3867H270.29C269.528 91.3867 268.91 92.0045 268.91 92.7665C268.91 93.5286 269.528 94.1464 270.29 94.1464H302.025C302.788 94.1464 303.405 93.5286 303.405 92.7665C303.405 92.0045 302.788 91.3867 302.025 91.3867Z" fill="#6E07F3"/>
<path d="M329.622 91.3867H308.235C307.473 91.3867 306.855 92.0045 306.855 92.7665C306.855 93.5286 307.473 94.1464 308.235 94.1464H329.622C330.384 94.1464 331.002 93.5286 331.002 92.7665C331.002 92.0045 330.384 91.3867 329.622 91.3867Z" fill="#6E07F3"/>
<path d="M302.025 105.185H270.29C269.528 105.185 268.91 105.803 268.91 106.565C268.91 107.327 269.528 107.944 270.29 107.944H302.025C302.788 107.944 303.405 107.327 303.405 106.565C303.405 105.803 302.788 105.185 302.025 105.185Z" fill="#6E07F3"/>
<path d="M350.319 105.185H308.235C307.473 105.185 306.855 105.803 306.855 106.565C306.855 107.327 307.473 107.944 308.235 107.944H350.319C351.081 107.944 351.699 107.327 351.699 106.565C351.699 105.803 351.081 105.185 350.319 105.185Z" fill="#5BE9B9"/>
<path d="M291.677 118.983H270.29C269.528 118.983 268.91 119.601 268.91 120.363C268.91 121.125 269.528 121.743 270.29 121.743H291.677C292.439 121.743 293.057 121.125 293.057 120.363C293.057 119.601 292.439 118.983 291.677 118.983Z" fill="#6E07F3"/>
<path d="M319.273 118.983H297.886C297.124 118.983 296.506 119.601 296.506 120.363C296.506 121.125 297.124 121.743 297.886 121.743H319.273C320.035 121.743 320.653 121.125 320.653 120.363C320.653 119.601 320.035 118.983 319.273 118.983Z" fill="#5BE9B9"/>
<path d="M336.521 118.983H325.482C324.72 118.983 324.103 119.601 324.103 120.363C324.103 121.125 324.72 121.743 325.482 121.743H336.521C337.283 121.743 337.901 121.125 337.901 120.363C337.901 119.601 337.283 118.983 336.521 118.983Z" fill="#6E07F3"/>
<path d="M312.374 132.781H270.29C269.528 132.781 268.91 133.399 268.91 134.161C268.91 134.923 269.528 135.541 270.29 135.541H312.374C313.136 135.541 313.754 134.923 313.754 134.161C313.754 133.399 313.136 132.781 312.374 132.781Z" fill="#6E07F3"/>
<path d="M288.227 146.58H270.29C269.528 146.58 268.91 147.197 268.91 147.959C268.91 148.721 269.528 149.339 270.29 149.339H288.227C288.989 149.339 289.607 148.721 289.607 147.959C289.607 147.197 288.989 146.58 288.227 146.58Z" fill="#5BE9B9"/>
<path fill-rule="evenodd" clip-rule="evenodd" d="M739.774 126.572H550.738V261.104C550.738 263.772 551.82 266.187 553.568 267.935C555.317 269.683 557.732 270.764 560.4 270.764H730.112C732.781 270.764 735.196 269.683 736.944 267.935C738.693 266.187 739.774 263.772 739.774 261.104V126.572Z" fill="white" stroke="#141C3A" stroke-width="2.75964"/>
<path fill-rule="evenodd" clip-rule="evenodd" d="M730.112 109.324H560.4C557.731 109.324 555.316 110.405 553.568 112.152C551.819 113.899 550.738 116.314 550.738 118.981V129.332H739.774V118.981C739.774 116.314 738.692 113.9 736.944 112.152C735.195 110.405 732.78 109.324 730.112 109.324Z" fill="#141C3A" stroke="#141C3A" stroke-width="2.75964"/>
<path d="M565.571 122.433C567.286 122.433 568.676 121.043 568.676 119.328C568.676 117.614 567.286 116.224 565.571 116.224C563.857 116.224 562.467 117.614 562.467 119.328C562.467 121.043 563.857 122.433 565.571 122.433Z" fill="white"/>
<path d="M575.92 122.433C577.635 122.433 579.025 121.043 579.025 119.328C579.025 117.614 577.635 116.224 575.92 116.224C574.205 116.224 572.815 117.614 572.815 119.328C572.815 121.043 574.205 122.433 575.92 122.433Z" fill="#6E07F3"/>
<path d="M586.269 122.433C587.983 122.433 589.373 121.043 589.373 119.328C589.373 117.614 587.983 116.224 586.269 116.224C584.554 116.224 583.164 117.614 583.164 119.328C583.164 121.043 584.554 122.433 586.269 122.433Z" fill="#5BE9B9"/>
<path d="M667.678 233.163C686.73 233.163 702.174 217.719 702.174 198.668C702.174 179.617 686.73 164.172 667.678 164.172C648.627 164.172 633.183 179.617 633.183 198.668C633.183 217.719 648.627 233.163 667.678 233.163Z" stroke="#6E07F3" stroke-width="3.1046"/>
<path fill-rule="evenodd" clip-rule="evenodd" d="M672.163 160.033H663.884V168.312H672.163V160.033Z" fill="#FFFFFE" stroke="#5BE9B9" stroke-width="2.75964"/>
<path fill-rule="evenodd" clip-rule="evenodd" d="M671.818 229.024H663.539V237.303H671.818V229.024Z" fill="#FFFFFE" stroke="#5BE9B9" stroke-width="2.75964"/>
<path fill-rule="evenodd" clip-rule="evenodd" d="M637.322 194.874H629.043V203.152H637.322V194.874Z" fill="#FFFFFE" stroke="#5BE9B9" stroke-width="2.75964"/>
<path d="M702.174 167.622V193.494" stroke="#141C3A" stroke-width="2.75964" stroke-linecap="square"/>
<path d="M702.174 203.842V229.714" stroke="#141C3A" stroke-width="2.75964" stroke-linecap="square"/>
<path d="M702.174 170.727C704.46 170.727 706.313 168.873 706.313 166.587C706.313 164.301 704.46 162.448 702.174 162.448C699.888 162.448 698.034 164.301 698.034 166.587C698.034 168.873 699.888 170.727 702.174 170.727Z" fill="#141C3A"/>
<path d="M702.174 236.268C704.46 236.268 706.313 234.415 706.313 232.129C706.313 229.843 704.46 227.989 702.174 227.989C699.888 227.989 698.034 229.843 698.034 232.129C698.034 234.415 699.888 236.268 702.174 236.268Z" fill="#141C3A"/>
<path fill-rule="evenodd" clip-rule="evenodd" d="M705.968 194.874H697.689V203.152H705.968V194.874Z" fill="#FFFFFE" stroke="#5BE9B9" stroke-width="2.75964"/>
<path d="M603.172 155.549H587.304C585.017 155.549 583.164 157.402 583.164 159.688V175.556C583.164 177.842 585.017 179.695 587.304 179.695H603.172C605.458 179.695 607.311 177.842 607.311 175.556V159.688C607.311 157.402 605.458 155.549 603.172 155.549Z" fill="#141C3A"/>
<path d="M603.172 186.594H587.304C585.017 186.594 583.164 188.448 583.164 190.734V206.602C583.164 208.888 585.017 210.741 587.304 210.741H603.172C605.458 210.741 607.311 208.888 607.311 206.602V190.734C607.311 188.448 605.458 186.594 603.172 186.594Z" fill="#5BE9B9"/>
<path d="M603.172 217.641H587.304C585.017 217.641 583.164 219.494 583.164 221.78V237.648C583.164 239.934 585.017 241.788 587.304 241.788H603.172C605.458 241.788 607.311 239.934 607.311 237.648V221.78C607.311 219.494 605.458 217.641 603.172 217.641Z" fill="#6E07F3"/>
<path d="M838.776 335.615C850.207 335.615 859.474 326.349 859.474 314.918C859.474 303.487 850.207 294.22 838.776 294.22C827.345 294.22 818.079 303.487 818.079 314.918C818.079 326.349 827.345 335.615 838.776 335.615Z" fill="white" stroke="#141C3A" stroke-width="2.75964"/>
<path d="M838.776 326.991C845.444 326.991 850.85 321.586 850.85 314.918C850.85 308.25 845.444 302.844 838.776 302.844C832.108 302.844 826.703 308.25 826.703 314.918C826.703 321.586 832.108 326.991 838.776 326.991Z" fill="white" stroke="#141C3A" stroke-width="2.75964"/>
<path d="M811.18 290.426C814.99 290.426 818.079 287.337 818.079 283.527C818.079 279.717 814.99 276.628 811.18 276.628C807.369 276.628 804.281 279.717 804.281 283.527C804.281 287.337 807.369 290.426 811.18 290.426Z" fill="#FFFFFE" stroke="#141C3A" stroke-width="2.75964"/>
<path fill-rule="evenodd" clip-rule="evenodd" d="M839.442 281.802H780.824C780.443 281.802 780.098 281.956 779.848 282.206C779.598 282.456 779.444 282.801 779.444 283.182V341.134C779.444 343.039 780.216 344.764 781.465 346.013C782.713 347.261 784.438 348.033 786.343 348.033H833.923C835.828 348.033 837.552 347.261 838.801 346.013C840.049 344.764 840.822 343.039 840.822 341.134V283.182C840.822 282.801 840.667 282.456 840.418 282.206C840.168 281.956 839.823 281.802 839.442 281.802Z" fill="white" stroke="#141C3A" stroke-width="2.75964"/>
<path fill-rule="evenodd" clip-rule="evenodd" d="M823.943 300.43H811.525C810.763 300.43 810.073 300.739 809.573 301.238C809.074 301.737 808.765 302.427 808.765 303.189V319.747C808.765 320.509 809.074 321.199 809.573 321.699C810.073 322.198 810.763 322.507 811.525 322.507H823.943C824.705 322.507 825.395 322.198 825.894 321.699C826.394 321.199 826.703 320.509 826.703 319.747V303.189C826.703 302.427 826.394 301.737 825.894 301.238C825.395 300.739 824.705 300.43 823.943 300.43Z" fill="#5BE9B9" stroke="#141C3A" stroke-width="2.75964"/>
<path d="M817.561 282.319V298.015" stroke="#141C3A" stroke-width="2.75964" stroke-linecap="square"/>
<path fill-rule="evenodd" clip-rule="evenodd" d="M740.119 329.13C734.518 329.13 729.447 331.4 725.776 335.071C722.425 338.422 720.241 342.941 719.886 347.964H760.351C759.997 342.941 757.813 338.422 754.461 335.071C750.791 331.4 745.72 329.13 740.119 329.13Z" fill="white" stroke="#141C3A" stroke-width="2.89763"/>
<path d="M741.499 330.786C741.499 330.024 740.881 329.406 740.119 329.406C739.357 329.406 738.739 330.024 738.739 330.786V332.51C738.739 333.272 739.357 333.89 740.119 333.89C740.881 333.89 741.499 333.272 741.499 332.51V330.786Z" fill="#141C3A"/>
<path fill-rule="evenodd" clip-rule="evenodd" d="M106.091 307.329H22.6117C16.9915 307.329 11.9033 309.607 8.22026 313.29C4.53718 316.973 2.25914 322.061 2.25914 327.681C2.25914 333.302 4.53718 338.39 8.22026 342.073C11.9033 345.756 16.9915 348.034 22.6117 348.034H106.091C106.662 348.034 107.18 347.802 107.554 347.428C107.929 347.053 108.16 346.536 108.16 345.964V342.761C108.16 342.037 107.881 341.374 107.42 340.88C106.96 340.386 106.319 340.059 105.597 340.008C100.821 339.668 97.2718 338.456 94.8921 336.487C92.3843 334.411 91.0845 331.492 91.0845 327.681C91.0845 323.866 92.3872 320.918 94.9237 318.792C97.3209 316.784 100.9 315.508 105.728 315.074C106.419 314.992 107.026 314.658 107.461 314.17C107.897 313.681 108.16 313.036 108.16 312.334V309.399C108.16 308.827 107.929 308.31 107.554 307.935C107.18 307.561 106.662 307.329 106.091 307.329Z" fill="#6E07F3" stroke="#141C3A" stroke-width="2.75964"/>
<path fill-rule="evenodd" clip-rule="evenodd" d="M101.877 315.263H22.2666C18.8373 315.263 15.7327 316.653 13.4854 318.9C11.2381 321.147 9.84816 324.252 9.84816 327.681C9.84816 331.111 11.2381 334.215 13.4854 336.462C15.7327 338.71 18.8373 340.1 22.2666 340.1C59.8309 340.1 86.5415 340.171 102.399 340.315C99.623 339.565 96.4398 338.503 94.1796 336.181C92.3639 334.317 91.0845 331.661 91.0845 327.681C91.0845 323.664 92.3879 320.999 94.2308 319.14C96.3457 317.007 99.2523 315.967 101.877 315.263Z" fill="white" stroke="#141C3A" stroke-width="2.75964"/>
<path fill-rule="evenodd" clip-rule="evenodd" d="M20.8609 330.786H90.5935C91.3413 330.786 91.9476 331.404 91.9476 332.166C91.9476 332.928 91.3413 333.546 90.5935 333.546H20.8609C20.1131 333.546 19.5069 332.928 19.5069 332.166C19.5069 331.404 20.1131 330.786 20.8609 330.786Z" fill="#141C3A"/>
<path fill-rule="evenodd" clip-rule="evenodd" d="M20.8609 321.817H90.5935C91.3413 321.817 91.9476 322.435 91.9476 323.197C91.9476 323.959 91.3413 324.577 90.5935 324.577H20.8609C20.1131 324.577 19.5069 323.959 19.5069 323.197C19.5069 322.435 20.1131 321.817 20.8609 321.817Z" fill="#141C3A"/>
<path d="M87.1714 238.461C85.4785 236.956 83.7856 235.451 82.0927 233.946C79.3949 231.55 76.7048 229.146 74.007 226.751C73.3886 226.205 72.7702 225.653 72.1595 225.107C72.1595 225.829 72.1595 226.559 72.1595 227.28C73.8524 225.775 75.5453 224.27 77.2382 222.765C79.936 220.369 82.6261 217.966 85.3239 215.57C85.9423 215.025 86.5607 214.472 87.1714 213.927C87.7743 213.389 87.7666 212.291 87.1714 211.754C86.5298 211.163 85.6331 211.178 84.9838 211.754C83.2909 213.259 81.598 214.764 79.9051 216.269C77.2073 218.665 74.5172 221.068 71.8194 223.464C71.201 224.009 70.5825 224.562 69.9719 225.107C69.3766 225.637 69.3766 226.751 69.9719 227.28C71.6648 228.785 73.3577 230.291 75.0506 231.796C77.7484 234.191 80.4385 236.595 83.1363 238.991C83.7547 239.536 84.3731 240.089 84.9838 240.634C85.5867 241.171 86.5839 241.271 87.1714 240.634C87.7125 240.05 87.813 239.037 87.1714 238.461Z" fill="#141C3A"/>
<path d="M112.95 213.931C114.643 215.436 116.336 216.941 118.029 218.446C120.727 220.842 123.417 223.245 126.115 225.641C126.733 226.186 127.352 226.739 127.962 227.284C127.962 226.562 127.962 225.833 127.962 225.111C126.269 226.616 124.577 228.121 122.884 229.626C120.186 232.022 117.496 234.425 114.798 236.821C114.18 237.366 113.561 237.919 112.95 238.464C112.348 239.002 112.355 240.1 112.95 240.638C113.592 241.229 114.489 241.213 115.138 240.638C116.831 239.132 118.524 237.627 120.217 236.122C122.915 233.727 125.605 231.323 128.303 228.927C128.921 228.382 129.539 227.829 130.15 227.284C130.745 226.754 130.745 225.641 130.15 225.111C128.457 223.606 126.764 222.101 125.071 220.596C122.374 218.2 119.683 215.797 116.986 213.401C116.367 212.856 115.749 212.303 115.138 211.758C114.535 211.22 113.538 211.12 112.95 211.758C112.409 212.341 112.309 213.355 112.95 213.931Z" fill="#141C3A"/>
<path d="M94.5479 247.504C95.0117 246.122 95.4677 244.74 95.9316 243.35C97.037 240.025 98.1424 236.707 99.2478 233.383C100.577 229.374 101.907 225.374 103.244 221.365C104.396 217.902 105.548 214.439 106.7 210.976C107.248 209.294 107.867 207.62 108.377 205.915C108.385 205.892 108.393 205.869 108.4 205.846C108.655 205.086 108.107 204.134 107.318 203.957C106.468 203.765 105.687 204.211 105.416 205.032C104.953 206.415 104.497 207.797 104.033 209.187C102.927 212.512 101.822 215.829 100.717 219.154C99.3869 223.162 98.0573 227.163 96.72 231.171C95.5682 234.634 94.4165 238.097 93.2647 241.56C92.7158 243.234 92.0974 244.908 91.5872 246.613C91.5795 246.636 91.5718 246.659 91.564 246.682C91.3089 247.442 91.8578 248.395 92.6463 248.571C93.4966 248.763 94.2773 248.318 94.5479 247.504Z" fill="#141C3A"/>
</g>
<defs>
<clipPath id="clip0_2_101">
<rect width="859.974" height="348.75" fill="white" transform="translate(0.879318 0.66333)"/>
</clipPath>
</defs>
</svg>
